<svg width="900" height="300" viewBox="0 0 900 300" fill="none" xmlns="http://www.w3.org/2000/svg">
<g clip-path="url(#clip0_1_5)">
<path d="M249.785 35.44L173.625 262H81.785L5.625 35.44H81.145L127.865 191.28L174.265 35.44H249.785ZM440.408 170.16C440.408 175.067 440.088 179.76 439.448 184.24H325.208C326.274 199.813 332.781 207.6 344.728 207.6C352.408 207.6 357.954 204.08 361.368 197.04H436.568C434.008 209.84 428.568 221.36 420.248 231.6C412.141 241.627 401.794 249.627 389.208 255.6C376.834 261.36 363.181 264.24 348.248 264.24C330.328 264.24 314.328 260.507 300.248 253.04C286.381 245.573 275.501 234.907 267.608 221.04C259.928 206.96 256.088 190.533 256.088 171.76C256.088 152.987 259.928 136.667 267.608 122.8C275.501 108.72 286.381 97.9467 300.248 90.48C314.328 83.0133 330.328 79.28 348.248 79.28C366.168 79.28 382.061 83.0133 395.928 90.48C410.008 97.7333 420.888 108.187 428.568 121.84C436.461 135.493 440.408 151.6 440.408 170.16ZM368.408 153.2C368.408 147.227 366.488 142.747 362.648 139.76C358.808 136.56 354.008 134.96 348.248 134.96C335.661 134.96 328.301 141.04 326.168 153.2H368.408ZM533.915 25.2V262H462.875V25.2H533.915ZM806.96 80.24C830 80.24 847.813 87.1733 860.4 101.04C873.2 114.907 879.6 133.68 879.6 157.36V262H808.88V166.32C808.88 158.64 806.533 152.667 801.84 148.4C797.36 143.92 791.28 141.68 783.6 141.68C775.707 141.68 769.52 143.92 765.04 148.4C760.56 152.667 758.32 158.64 758.32 166.32V262H687.6V166.32C687.6 158.64 685.253 152.667 680.56 148.4C676.08 143.92 670 141.68 662.32 141.68C654.427 141.68 648.24 143.92 643.76 148.4C639.28 152.667 637.04 158.64 637.04 166.32V262H566V81.52H637.04V105.84C642.16 98.16 649.093 91.9733 657.84 87.28C666.8 82.5867 677.253 80.24 689.2 80.24C702.213 80.24 713.733 83.12 723.76 88.88C733.787 94.4267 741.787 102.32 747.76 112.56C754.373 103.173 762.8 95.4933 773.04 89.52C783.28 83.3333 794.587 80.24 806.96 80.24Z" fill="url(#paint0_linear_1_5)"/>
</g>
<defs>
<linearGradient id="paint0_linear_1_5" x1="332.021" y1="2.007e-06" x2="474.757" y2="352.051" gradientUnits="userSpaceOnUse">
<stop offset="0.5" stop-color="#2D2F8F"/>
<stop offset="0.51" stop-color="#7C3AED"/>
</linearGradient>
<clipPath id="clip0_1_5">
<rect width="900" height="300" fill="white" transform="matrix(1 0 0 -1 0 300)"/>
</clipPath>
</defs>
</svg>
