<?xml version="1.0" encoding="UTF-8"?>
<svg xmlns="http://www.w3.org/2000/svg" viewBox="0 0 1000 440" role="img" aria-labelledby="title desc">
  <title id="title">Velm developer journey: start, code, ship</title>
  <desc id="desc">Hand-drawn Excalidraw-style guide for developers: install, author modules, deploy on Laravel.</desc>
  <defs>
    <style>
      @import url('https://fonts.googleapis.com/css2?family=Caveat:wght@500;700&amp;family=Patrick+Hand&amp;display=swap');
      .hand { font-family: 'Caveat', 'Patrick Hand', cursive, sans-serif; fill: #1e1e1e; }
      .title { font-size: 28px; font-weight: 700; }
      .sub { font-size: 16px; fill: #495057; }
      .label { font-size: 22px; font-weight: 700; }
      .small { font-size: 15px; }
      .mono { font-family: 'Patrick Hand', cursive; font-size: 13px; }
      .tiny { font-size: 13px; font-weight: 600; }
      .foot { font-size: 14px; fill: #868e96; }
    </style>
  </defs>

  <rect width="1000" height="440" fill="#ffffff"/>

  <text x="500" y="42" text-anchor="middle" class="hand title">Your path: start → code → ship</text>
  <text x="500" y="68" text-anchor="middle" class="hand sub">One Laravel app · PHP modules · working admin UI</text>

  <!-- dashed journey -->
  <path d="M 70 210 C 162.04717978821424 187.10474346456112 255.76757568176424 186.0400806511924 350.0887344195087 211.90731074852187 M 67.47241760064014 209.1948548722394 C 161.70224917013974 184.79918161414193 257.54563889052184 188.51210681776098 349.4815809050449 209.26006502176074 M 350 210 C 440.79739458965366 231.18139441156254 535.494754236105 233.47281437555924 632.4138286268947 209.1050839485941 M 352.2454346815825 210.8046911583909 C 444.05934671118104 235.85512326748494 535.1653566193659 234.65663137364663 626.9237043723415 207.80530108274846 M 630 210 C 721.2415942967475 184.78788956457618 810.9972158612007 186.39603784174145 901.9523431918699 209.1806763180581 M 632.2282709684214 209.29049763884166 C 724.9330901599908 188.51408730959633 812.0555629124193 185.4124614649215 900.843467619317 209.48414454921095" fill="none" stroke="#adb5bd" stroke-width="2" stroke-linecap="round" stroke-dasharray="10 8"/>

  <!-- panel 1 START -->
  <g>
    <path d="M 29.803352360935865 94.15579231673502 C 110.86510242174793 94.12098088211869 191.0149888754309 95.16515521876572 299.9135662815752 96.11366111872297 M 30.049193997118422 94.9528747485714 C 102.48306120732855 95.48224151919862 173.27805591095483 95.35936572316976 299.9572112012541 94.98807284713008 M 299.5699815255223 95.18733121976176 C 302.37891462237803 161.30258845527266 301.19466836776013 224.81302062030124 300.0773440128083 381.25262792244627 M 300.504566483681 95.30893768833957 C 302.4093524728003 207.49871089941075 302.5987644616697 319.6786559323445 300.58198261899867 380.02495262303114 M 299.0932158495912 378.4962003917385 C 236.72149956786612 379.29233150469355 174.2494473809671 378.16821282796764 31.270170867918825 380.12028667057 M 299.6415429504466 379.52851749427316 C 202.78247234902292 379.295970469006 105.92871868426245 380.1775115759528 29.258509568283458 380.2130133085133 M 28.95223190226832 381.5091421010622 C 30.953823432562988 287.7874679607633 29.110988973186686 198.6591040142204 30.777378634490713 95.51148149615494 M 29.620770087996302 379.3153795034216 C 31.743645493555924 297.319557019208 31.59544259421333 213.86141620285042 30.793916192760523 94.86855206609057" fill="#a5d8ff" stroke="#000" stroke-width="1" stroke-linecap="round" stroke-linejoin="round"/>
    <text x="165" y="135" text-anchor="middle" class="hand label">1. Start</text>
    <text x="165" y="158" text-anchor="middle" class="hand small" fill="#495057">~5 minutes</text>
    <path d="M 55.606884668078855 175.8641986646584 C 111.11253115587002 174.3923092012066 166.49503113144902 175.585801230414 275.42436041161847 174.95598187284793 M 54.25521341282023 175.03159124557334 C 134.70242119696158 174.94040696582206 213.14868575657843 175.4870074693045 275.3485386016333 175.40550573594766 M 276.7816542718648 173.57833198366737 C 274.0308524961289 200.3859557249856 274.80524205488666 225.05902610615124 277.0244514759895 271.79291882614245 M 275.5618563553222 175.371155044846 C 274.7594721039285 203.79286676555034 275.6276210187706 232.40409611019388 273.9458224131774 269.4876890761932 M 274.1386297695341 271.10242738659747 C 207.5266156645371 270.58996330280524 135.9518063020427 270.69821958420886 55.970121395999584 271.66906224436684 M 274.37498922924476 269.7427643764059 C 203.13191354310902 272.4337178618147 130.82489627483685 271.5813690224826 55.87239764959912 269.240916615731 M 56.77402520696532 272.1222247533989 C 54.81606766491933 247.431183955201 53.76677581438006 230.12063504374981 53.68162657730634 173.99623778423526 M 53.95320009530644 269.81040402681276 C 55.66594078494123 240.46108668176126 55.410251660850875 208.38465505280487 54.97640173191572 174.50065723553547" fill="#343a40" stroke="#000" stroke-width="1" stroke-linecap="round" stroke-linejoin="round"/>
    <circle cx="72" cy="192" r="5" fill="#fa5252" stroke="none"/>
    <circle cx="90" cy="192" r="5" fill="#fab005" stroke="none"/>
    <circle cx="108" cy="192" r="5" fill="#40c057" stroke="none"/>
    <text x="68" y="222" class="hand mono" fill="#a5d8ff">$ composer create-project</text>
    <text x="68" y="242" class="hand mono" fill="#a5d8ff">velmphp/app my_app</text>
    <text x="68" y="262" class="hand mono" fill="#b2f2bb">$ composer run setup</text>
    <path d="M 118.4827148154527 282.85097255418583 C 140.4978877995054 285.5708046632276 159.60536763662907 287.4129588155664 210.86953741476543 285.16943061349554 M 120.88410846882007 284.3957371169827 C 152.43250005239022 284.4081514702583 186.41634890933423 284.4575940766196 210.0500109198193 285.77968197240097 M 209.73519579700422 286.16671339089476 C 209.80016800399574 301.55500175700126 210.76891884443742 312.9061750953277 211.22823820748354 341.10467832443254 M 210.68558738578062 285.156419423429 C 210.67427961372957 304.4614323067536 209.6559290939732 321.5039352156722 210.32786563348176 340.6384125303618 M 211.3486012758389 338.01536485020296 C 177.4020454574521 340.8466348522791 142.47764818534682 340.6739055243579 118.33838030007831 339.2447763697871 M 209.72660627762133 340.85619663348587 C 183.1291698888756 340.1670297291496 157.67229710365447 340.8818330043449 119.43687258361443 340.88713137290597 M 121.40110730885239 339.98148295425204 C 120.7571011605474 321.57007354290374 119.2544294151094 305.2630135757598 120.96800395069562 284.65887278365005 M 120.28342202458164 340.5825944635045 C 119.68506392608917 324.30220691270074 120.63639573127251 309.36591802211706 120.98138577572779 285.71891337475773" fill="#ffffff" stroke="#000" stroke-width="1" stroke-linecap="round" stroke-linejoin="round"/>
    <path d="M 126.41228306570231 293.967095907877 C 155.15711946046153 294.7916442497854 185.05796496145433 294.6495603768563 202.17644900024194 294.4691859822349 M 127.47926744033539 293.027329597037 C 145.03650041401082 294.00370065538357 164.5698189774283 293.8988205296478 201.27864438081747 292.52555014468544 M 202.5785807750516 291.38503561461596 C 201.93772684166314 303.2787423704402 203.25051603198426 313.76438760137376 203.7511156445776 330.18948288529094 M 202.24589144592608 293.01619478424044 C 201.1509022854747 301.6758156842486 201.73175908003836 310.32832392059396 202.02310659402946 332.0928977755123 M 200.1836738482731 332.9875195793189 C 188.70799798808366 330.78706865806333 170.90556545222404 330.99036603213506 128.80873014901613 330.6515860728298 M 201.37716280466026 331.7847351608205 C 185.37058244154284 332.12477722749213 170.2248740637596 331.8603429594583 129.0953369538257 331.99856280726107 M 127.02585778290747 329.69536639453867 C 127.55411869326583 322.3311453612232 127.78887937102019 312.2032327919155 127.95923729988824 293.481016704268 M 127.62498717063505 330.0552459897741 C 128.74502666068037 319.75744391357887 128.65888767124756 306.91600134648314 127.6421455861735 293.589753105714" fill="#a5d8ff" stroke="#000" stroke-width="1" stroke-linecap="round" stroke-linejoin="round"/>
    <path d="M 103.8649072636794 344.9247901887584 C 136.84473070154976 342.68422838586815 165.29909464148213 345.04650601597984 224.384249533808 343.586639778146 M 105.1217260196287 344.38129845298096 C 145.58954974792678 346.6126613394877 186.16312436915518 345.5735621487605 224.15913690751947 344.8632274115777 M 225.34983504285532 344.60931725745155 C 228.1197799815997 350.3900019866399 232.41734136696914 353.4538940266386 236.9722620274687 358.33127443492305 M 224.68412430001692 344.7739904898164 C 229.77667684563698 349.8112121086352 234.19841093667733 354.2016170714638 237.76947811254195 360.05753687415233 M 239.3552143553276 358.64501061913796 C 194.0646167173592 360.68981483472413 149.51115255406063 359.9192350022455 92.35110667244793 359.30277613231823 M 237.6149792824064 360.8163177562336 C 185.7116829627523 360.1308054920887 134.18216019877235 359.80710560283126 92.45376359906156 360.949416213613 M 91.31404406376393 359.98749320554435 C 96.2392361880184 356.135276898728 99.8529586720674 354.3367590311038 104.71638536918199 344.2946753996606 M 92.70096144682927 360.19056758852565 C 94.78702491993224 355.2645015071427 99.17267858400862 352.75279792730214 105.31052949603985 344.7065111978526" fill="#dee2e6" stroke="#000" stroke-width="1" stroke-linecap="round" stroke-linejoin="round"/>
    <text x="165" y="375" text-anchor="middle" class="hand small">open /velm — panel ready ☕</text>
  </g>

  <path d="M 305.98326086247465 229.60199139420595 C 317.48964578959686 229.9751812010012 328.89703759224903 230.15086603681823 339.8551196186744 228.11910135830024 M 308.4533440994485 231.1299880741845 C 318.07958729022215 230.12252225177417 329.2345133448148 229.5178722907542 337.5454686285598 231.15424113798437" fill="none" stroke="#000" stroke-width="1" stroke-linecap="round" stroke-linejoin="round"/><path d="M 338.80486755494974 230.352082456441 C 334.80280492707186 228.77311105205052 330.93011375661365 228.22407897130068 327.0255881283758 224.26850527395686 M 338.27342522527897 229.85158676259908 C 334.5000606033742 228.980151327934 330.9034487936165 227.57629733962273 326.45685925140333 225.14927575965703 M 326.21875794665686 225.60144374415773 C 326.6006155072756 227.2313406810204 326.71371496677483 229.98297889908866 326.0930646278141 234.59163902511025 M 326.3588634286933 225.08311000248528 C 326.3011214061949 227.95959405013792 326.0690918605786 230.34810321536045 326.2356641921548 235.11421537713431 M 326.7402801856464 234.14760732579526 C 331.3454555971185 232.15236943831852 335.29068550629455 231.29007100105466 337.5501572121182 229.15578036113038 M 325.9301321525005 234.85858046485777 C 330.3606999398717 233.22928496461768 333.45907755472035 232.02117802041428 338.34747120428614 230.3907970032073" fill="#1e1e1e" stroke="#1e1e1e" stroke-width="1" stroke-linecap="round" stroke-linejoin="round"/>

  <!-- panel 2 CODE -->
  <g>
    <path d="M 345.3299180044479 96.1266608741333 C 463.00620103291465 93.60130496062536 578.7164385985487 95.7589416539682 654.4746360020868 96.31476907321063 M 344.5424731848377 94.8048659287482 C 437.70317774666665 96.24551994022204 532.2912559555151 95.88932993879207 654.3949864103796 94.6433260176445 M 653.9819924365449 94.98954586195862 C 654.5888198769684 192.3717205600096 653.0141385600825 291.40232558640935 654.8029137907996 379.40544524809513 M 654.8994478346333 94.31418712546751 C 656.0875598778636 188.66289310503805 655.5838853130865 283.3392098095922 654.3631572590858 380.12036349637424 M 655.4520758401445 378.93400873790677 C 578.3586281358048 379.04718941020917 500.27667283605876 378.9523078691587 344.254839816001 380.4399761731745 M 654.8068705478657 379.2642071723646 C 553.8247415494013 379.8762308998883 452.290955653835 379.48134110886804 345.12055933313417 380.7003263466352 M 345.6587173692 380.8427646501596 C 341.2488367196365 307.1680882343134 343.84707742738823 235.82989062240014 344.52682086129244 93.56354790635471 M 345.01034759054517 379.4294515169764 C 344.3635035312515 304.1311440865394 344.48236052204163 229.04753979288807 345.3803477983675 95.08658356010379" fill="#b2f2bb" stroke="#000" stroke-width="1" stroke-linecap="round" stroke-linejoin="round"/>
    <text x="500" y="135" text-anchor="middle" class="hand label">2. Code</text>
    <text x="500" y="158" text-anchor="middle" class="hand small" fill="#495057">addons/my_module/</text>
    <text x="375" y="188" class="hand mono">├── __velm__.php</text>
    <text x="375" y="208" class="hand mono">├── models/Product.php</text>
    <text x="375" y="228" class="hand mono">└── views/product.php</text>
    <path d="M 372.8411172169265 243.9500378165124 C 398.8760161747523 244.67986742126715 423.30544027141053 246.83010289907017 443.7051195816564 242.9574631837533 M 375.4153663286931 245.60413815656906 C 389.1017002066754 244.04821910077732 404.0482589240162 244.01342553034672 445.3896660383888 244.26269532058788 M 443.6029545082886 243.44271921525265 C 445.2741097582052 257.11073311943477 444.58417942354833 267.95216431453866 446.76606143713065 272.05653824246014 M 444.9059206978225 245.98478968789934 C 444.2824018735658 250.58628028111903 444.2787082638387 258.7859114467151 444.56977038029555 273.5810047905696 M 445.297381941321 271.59079462526887 C 422.90235312340553 273.2227131642146 400.9006297099135 273.6556074352032 376.8016244757156 272.5463854546266 M 445.2626857321816 273.95841233091863 C 423.7106882248236 274.41664239424784 402.3676533609812 273.26387595436154 374.42834832484965 273.96852822227055 M 374.19776643459176 275.11396246447896 C 376.9728375391968 267.4822561402942 376.18047146599986 261.3371273669872 375.0589645340826 246.90209872836016 M 374.4180390434696 273.87948434035894 C 375.0100979153556 266.52815324717454 374.00333300730864 262.10144670746377 375.283194437948 245.13966990826557" fill="#ffffff" stroke="#000" stroke-width="1" stroke-linecap="round" stroke-linejoin="round"/>
    <text x="410" y="265" text-anchor="middle" class="hand mono">ListView</text>
    <path d="M 455.54446848973885 243.69722758667484 C 480.92998823783427 246.6923188404659 500.678162996304 243.9631105440548 523.2031720818004 247.09948855420774 M 454.3466814931717 245.49903607044956 C 475.95918695988524 243.51437723881327 497.78317587776854 244.58241195668214 525.2832841350473 245.34633183909588 M 525.7933325014889 246.7442962825665 C 523.1628928288163 251.54037367346803 525.4626148841845 259.54131343180774 523.0730774727706 274.0704719206557 M 524.7587126325155 244.83938338538738 C 524.4371600170092 254.39495235674113 523.777846286078 264.73768341424983 525.5110990902785 272.80251103859155 M 525.099665966142 272.15235845840806 C 509.33233571425984 271.6215890622936 495.9479645771692 271.26805389175246 457.1712758214634 272.55095854102063 M 525.3339740669451 272.4871231266827 C 503.1493440131791 273.2951304374959 484.20350177309507 271.9625970690844 454.260683588203 273.70614697570045 M 453.96023355899325 271.3613066169349 C 456.5201170124431 264.01939492979386 457.2266836284729 258.7424599801162 456.8284537585309 243.16956981053391 M 455.49607563890186 272.71399633714793 C 455.5821705288158 267.0069346319742 454.91719350802606 260.109666845073 453.9925175370036 244.64942614564737" fill="#ffffff" stroke="#000" stroke-width="1" stroke-linecap="round" stroke-linejoin="round"/>
    <text x="490" y="265" text-anchor="middle" class="hand mono">FormView</text>
    <path d="M 535.2312163198803 246.71192008469757 C 555.677210267332 244.4254049673562 577.7128198209355 246.7984232581927 592.2467467905188 244.11324025436033 M 534.6520761948883 245.03392537635725 C 549.5327829397722 245.43191466569988 565.0233669394802 244.4139467826961 592.545513392041 244.46236115108022 M 591.7115594775524 243.2884766442698 C 594.0022683945498 256.6945727751238 594.2925592521199 265.0944344358855 592.0408449132557 273.1248958952827 M 593.1205106679328 245.47266365181187 C 592.4572156589187 250.69131322371666 592.7710971569194 256.22718484630656 593.7863604005385 272.5909929840039 M 595.1616529653622 272.185496092402 C 572.6046078414274 272.6478565057483 547.4400745235457 274.21661494652875 534.0286243675556 273.36602067584334 M 592.4632265691552 273.1769341001523 C 579.807828783362 274.13515594697054 566.4280947816226 273.1420934786486 534.9996358823249 272.4923114444203 M 534.4791987057732 271.0700309148999 C 534.8505862888048 264.3120098320368 536.9811072284175 255.83481345128467 534.054398706543 246.44442997137688 M 534.9182961071925 272.189971189532 C 534.4850683194775 264.9352561363289 534.7801190173761 257.03397256442037 534.2225736450625 244.47629430245243" fill="#ffffff" stroke="#000" stroke-width="1" stroke-linecap="round" stroke-linejoin="round"/>
    <text x="564" y="265" text-anchor="middle" class="hand mono">menus</text>
    <path d="M 373.9543423653161 284.5824973832155 C 452.187844925908 285.4053530272357 529.5092421649757 285.86102740877396 629.0437014203565 285.2599592374627 M 375.50692880906075 285.2706988645072 C 457.96407433503435 285.2875775240233 539.4329993770393 285.12155086861327 629.7007281609883 285.78534607475876 M 630.3553403869133 286.3628777046983 C 629.9278809635109 294.2088603165243 628.4258615674263 300.57645927776656 628.5077555610216 322.6093457796549 M 630.5484867359147 285.64079991766135 C 630.7708687925298 294.27489992347404 630.637799712839 302.1940556335819 630.2129101324599 320.517622986756 M 629.8370401098997 321.4839466300367 C 556.2983537452441 319.96327666688325 485.63004451798906 319.78455246575635 373.5094235694896 320.1261729534606 M 629.4769908094115 321.7682600306394 C 570.2096257641697 319.9828068692678 511.5883572972845 319.30679356447524 375.5847099448655 320.45187474178573 M 373.25944043258 319.16693064270237 C 372.74636896952154 311.93664242094377 376.44072266297644 299.8918426338138 374.7444025965442 283.2080845352614 M 375.04882036859254 320.18629713980084 C 375.03022474452575 308.20452044427475 374.4711251837501 297.3694228865193 375.3840576501819 285.3998222045796" fill="#fff3bf" stroke="#000" stroke-width="1" stroke-linecap="round" stroke-linejoin="round"/>
    <text x="502" y="310" text-anchor="middle" class="hand mono">velm:module:sync my_module</text>
    <text x="500" y="360" text-anchor="middle" class="hand small">lists + forms appear — no hand-built CRUD</text>
  </g>

  <path d="M 660.6597202326211 227.60264668910034 C 671.7739648195128 227.7983018378003 684.1159729206705 231.01402185456902 691.2939172776589 227.67226576835492 M 662.8641175069822 229.30657783921086 C 673.3862612996601 230.60083139743125 685.0605454366853 230.0819239364271 691.8798732798897 230.62350512534272" fill="none" stroke="#000" stroke-width="1" stroke-linecap="round" stroke-linejoin="round"/><path d="M 692.7360710076955 229.4469472221118 C 689.3940963325269 228.43256586317622 687.8597589808907 228.03277794735095 679.9781974471863 224.4168479217262 M 693.2894463454502 230.37413601560618 C 688.3186270124336 227.98812911719767 684.0061922202672 226.75228451241685 680.9316581431812 225.47021668806434 M 680.5765067404427 225.07720385275985 C 681.7351755953148 229.37541937658492 680.4999393863442 232.22099646442527 681.0922274695657 235.12259659081565 M 680.8798762892666 224.64457155314437 C 680.543983790184 227.33679204811472 681.298885596028 229.60962039636107 680.9537468895322 234.88512433230719 M 681.4208332392141 234.4494488682724 C 685.4387916876914 233.12417302550026 688.0479239568358 230.87062674866164 692.6021609970395 230.74819172150256 M 680.8294524190172 234.96701140464504 C 685.2132800444513 232.90484786205286 689.2557427379828 231.24709174210676 693.3000325631941 230.43760322911749" fill="#1e1e1e" stroke="#1e1e1e" stroke-width="1" stroke-linecap="round" stroke-linejoin="round"/>

  <!-- panel 3 SHIP -->
  <g>
    <path d="M 698.4638876256818 96.41211810949531 C 790.4893671456564 95.66000059902585 879.6929859167673 94.2491657709673 969.9802563534661 94.97191318016763 M 699.6612571625458 95.17022250393896 C 760.712465252767 95.40095148671368 823.3720365770442 93.99283050362746 969.6671900249607 95.27337941446308 M 970.5939277679104 94.33851674780159 C 970.2518307033113 186.1481801924896 971.3016440403791 277.9132330519952 970.60391537811 378.94457948443517 M 970.0440090631307 95.54344542035618 C 972.7050654440892 174.1793963144904 972.6255928157916 252.63724131138986 970.6801322936251 380.2299164244811 M 969.1149747242379 379.08739547666374 C 894.115914076218 380.0200490229171 816.7183561905675 382.1205615863311 699.8746771844474 381.3040382713333 M 970.2065563223606 380.1262772599618 C 869.8355486801013 377.9674309279347 771.5360917851277 377.82949753677485 699.780640728594 379.2840848386082 M 701.0245014671669 380.4193984460607 C 700.3889399434312 293.31194170069926 699.5646985636554 205.61482134323253 699.2007094348986 96.51301852249722 M 699.4698049399553 379.774140779762 C 697.7605985353609 277.56983331306355 698.1489743715141 177.08431967178612 699.2902254680054 95.02425536495113" fill="#fff3bf" stroke="#000" stroke-width="1" stroke-linecap="round" stroke-linejoin="round"/>
    <text x="835" y="135" text-anchor="middle" class="hand label">3. Ship</text>
    <text x="835" y="158" text-anchor="middle" class="hand small" fill="#495057">same Laravel deploy</text>
    <path d="M 735.3365906463578 178.981219502165 C 805.0202538283187 181.12170139896722 875.667281925194 179.82654309191525 935.5993507408202 181.04382503989336 M 734.2749591652307 179.56919484253177 C 794.3775417999266 179.06174418771894 854.3660880012521 178.7145674969104 935.8747903693503 179.25330943134944 M 932.8105090108085 178.58437321587022 C 935.5732352778689 192.15113988804927 934.3892617205034 208.31890310509166 935.035402021141 215.35586685350123 M 935.7846583724278 179.77804504617342 C 934.4316821841676 188.4322631261216 935.0305099917744 197.37232306435936 934.734624828494 214.78569035577493 M 934.8677168538222 215.59247445516576 C 856.6856056054876 216.02099522820782 776.1633630406138 215.84968836701023 736.3802670752115 214.117515155613 M 935.986130417035 214.8865110794233 C 862.7939818026318 211.73108189385866 790.906220319362 212.7483576666083 734.2708382490904 214.21219386105005 M 734.930828816591 212.11055464441745 C 733.6989712549343 203.8039535628109 735.8868335662801 196.05511516541773 736.7604715760785 180.0263923284189 M 734.2498903056387 214.18480281741105 C 734.984896890291 205.17150961985462 735.2637000176783 195.9898704327367 735.9198880720236 180.18251898726217" fill="#ffffff" stroke="#000" stroke-width="1" stroke-linecap="round" stroke-linejoin="round"/>
    <text x="835" y="203" text-anchor="middle" class="hand small">Forge · Docker · VPS</text>
    <path d="M 733.2396471784423 222.00527201474932 C 800.9199672658312 220.79051825352354 865.0862332796487 219.9665599864494 936.923939334092 221.9356601547939 M 735.5453371876192 222.76033447721463 C 796.0599872401139 220.70015748989672 858.5571979532741 220.19739730168058 934.4615640881381 222.56275357327357 M 936.0865649555035 221.26337820392982 C 932.8477835467004 232.51500891740068 937.1453474729558 240.3226270505145 936.6335069937401 257.279460213122 M 935.2046896708325 221.2175683481709 C 934.3837329384324 228.72217749748472 935.2773690042939 236.9330770867422 934.6279399855616 257.0047236678118 M 935.4165664820368 255.70219646858166 C 880.9021775310151 257.44338073870404 826.5738942913636 258.96799723795993 733.0773333966656 256.4353279925962 M 935.1591297999431 256.9026130074789 C 874.2475919628954 258.3971366565923 812.5696216985936 258.23923343369654 735.6147721744538 255.72038293056391 M 732.9598123684 257.41232969560446 C 736.5161483553769 249.01273891558674 733.6204581649498 240.29023237310906 733.0719971719667 222.73588474376174 M 735.4389447404867 255.65480973152393 C 733.7340096245572 247.89780862161516 735.6062600982323 241.88565004375798 735.564040549265 221.91068388768085" fill="#ffffff" stroke="#000" stroke-width="1" stroke-linecap="round" stroke-linejoin="round"/>
    <text x="835" y="245" text-anchor="middle" class="hand mono">velm:migrate</text>
    <path d="M 734.4087646462568 262.0262039207611 C 809.5226303026827 263.26629615279097 882.7653865246966 262.71833692123414 934.275693479101 262.3594281820696 M 735.1928427157196 264.0710746371675 C 805.7654874180091 264.53262671790753 875.8149324958681 264.40182047864585 934.1955573580316 263.43477244040315 M 934.4519308272431 262.88838969736634 C 936.9365765440318 274.39612375369376 934.4529616298826 282.4702994905114 935.1706831090406 299.6693002792525 M 934.8623958528026 264.0768172376956 C 933.7642824537219 272.91527661703594 933.5428336982441 284.1710633177161 934.9832016579008 298.0813320310064 M 933.2042869908171 299.18979068241845 C 886.3342953253853 297.33011965137194 835.209667237946 297.2642993161226 736.9475574308755 297.44580023079186 M 934.559573606848 298.32656470121384 C 892.1765787529084 299.2893327814875 849.6430650150537 299.24187602674385 735.1736614835129 297.88351679836734 M 736.069132688487 297.58991814627586 C 736.0352296800835 287.3670206483438 733.7351118387038 278.39579081927917 735.8071341462131 263.6631573886846 M 734.18625447387 298.8080273967249 C 735.1116221909575 287.22638667779387 735.209421689472 278.4977241502447 735.7325981802276 264.7284023793132" fill="#a5d8ff" stroke="#000" stroke-width="1" stroke-linecap="round" stroke-linejoin="round"/>
    <text x="835" y="287" text-anchor="middle" class="hand small">/velm live in prod 🚀</text>
    <path d="M 921.9049288114945 194.74937133667208 C 924.149197092793 189.76539229001423 932.345247878278 183.43592570377706 943.3647983898275 169.79538013798998 M 920.4505763788766 194.06281475810863 C 926.5070572694431 188.9295460335586 931.965509033377 184.4968594402901 945.0846793726503 170.75515532660566 M 946.5798304018622 169.72307120814293 C 944.5506655122315 176.25560218228225 949.7043858179355 180.97434292732143 954.1248710286528 195.8064206261217 M 945.6548121314715 169.09610941552518 C 946.7710340698067 176.2292527252463 948.1023274870272 183.91097086042993 951.450899112101 196.05977084958243 M 950.3810490469303 195.79459754714927 C 950.6556611403622 200.28839799969387 948.7876266896485 204.14499525445876 944.1212209723127 206.65554373905795 M 951.5189960473954 194.61332558585536 C 948.6531387532036 200.6750702010204 946.8446296986627 204.8097765961913 945.0093806823329 208.5257248252903 M 944.6815879628341 206.63504223917752 C 935.4505173974383 200.9737533858094 927.7476083911946 198.7231333589578 920.1940786052094 196.76482140350933 M 944.6453720729916 207.5118930016686 C 936.9985144947432 204.61677347375934 930.9052228041966 201.30947902531508 921.1407542788845 195.6781330572906" fill="#ffc9c9" stroke="#000" stroke-width="1" stroke-linecap="round" stroke-linejoin="round"/>
    <path d="M 778.0017330852024 321.74941724201517 C 780.8191979258678 322.43328042824214 785.3207484107477 323.93721427337016 787.0453886159062 326.4125760059991 C 788.7700288210647 328.887937738628 788.8048186971824 333.3470170342023 788.3495743161535 336.6015876377888 C 787.8943299351246 339.8561582413753 786.3595207017272 343.6507636616105 784.3139223297327 345.939999627518 C 782.2683239577382 348.22923559342547 778.944793803971 349.98706156970087 776.0759840841864 350.3370034332338 C 773.2071743644018 350.68694529676674 769.451641658651 350.11727082328895 767.1010640110247 348.0396508087157 C 764.7504863633984 345.96203079414244 762.6225542997719 340.9196718317488 761.9725181984282 337.8712833457944 C 761.3224820970846 334.82289485983995 762.0834075845019 332.26257554620923 763.200847402963 329.7493198929892 C 764.318287221424 327.2360642397692 766.1002024189954 324.31080952889425 768.6771571091952 322.7917494264743 C 771.2541117993949 321.2726893240544 776.5602351480945 320.77280136638797 778.6625755441612 320.6349592784697 C 780.7649159402279 320.4971171905514 781.0551723606148 321.7427813053396 781.2911994855951 321.9646968989645 M 782.1029831484594 323.08015858601846 C 784.3244079712213 324.1038695178194 784.6876497861151 326.140530438045 785.6978358902935 328.63976138854673 C 786.7080219944719 331.13899233904846 788.9750540723296 334.9431324936377 788.1640997735296 338.07554428902887 C 787.3531454747297 341.20795608442006 783.3714433938934 345.56985063583994 780.832110097494 347.4342321608938 C 778.2927768010946 349.2986136859477 775.631657167444 349.7934416804739 772.9280999951334 349.2618334393521 C 770.2245428228227 348.73022519823024 766.5296813058254 346.25461824879585 764.6107670636303 344.24458271416273 C 762.6918528214352 342.2345471795296 761.3698255869306 340.46711191661655 761.4146145419628 337.20162023155336 C 761.459403496995 333.9361285464902 763.420221150527 327.6299365447673 764.8795007938235 324.65163260378364 C 766.3387804371199 321.6733286628 767.2541334450393 319.9622145262159 770.1702924017417 319.33179658565143 C 773.086451358444 318.70137864508695 780.872747839467 320.4108532365777 782.3764545340376 320.86912496039673 C 783.8801612286082 321.3273966842158 779.3994508485397 321.73210570957053 779.1925325691653 322.08142692856575" fill="#ffc9c9" stroke="#000" stroke-width="1" stroke-linecap="round" stroke-linejoin="round"/>
    <path d="M 836.9996297670102 321.4671378833609 C 839.9183172128946 321.56981978656063 844.8482418410415 323.29947257982684 846.9757493551217 325.62122759289986 C 849.1032568692019 327.9429826059729 850.070087430057 332.51537118413876 849.7646748514916 335.39766796179896 C 849.4592622729261 338.27996473945916 847.3420401986953 340.54374701958244 845.1432738837292 342.91500825886095 C 842.9445075687631 345.28626949813946 839.6259988468423 348.97459060107997 836.572076961695 349.62523539746996 C 833.5181550765476 350.27588019385996 829.2839688468796 348.3969405297976 826.8197425728449 346.81887703720076 C 824.3555162988102 345.24081354460395 822.6656284349408 343.13125389623826 821.7867193174867 340.15685444188904 C 820.9078102000326 337.1824549875398 820.6659269240624 332.0188291738993 821.5462878681202 328.9724803111054 C 822.426648812178 325.92613144831154 823.6940651108641 322.7914507845844 827.0688849818333 321.87876126512566 C 830.4437048528025 320.9660717456669 839.160370231001 323.1607913210982 841.7952070939355 323.4963431943528 C 844.4300439568699 323.8318950676074 843.0719063171388 323.75870418008526 842.87790615944 323.89207250465324 M 839.1773084801429 323.19316680464755 C 842.1477529537085 323.30032731577546 843.469035984369 322.33857545478753 845.4892538028232 324.51364889434086 C 847.5094716212774 326.6887223338942 851.3069575728347 333.0561280919367 851.2986153908679 336.2436074419675 C 851.2902732089011 339.4310867919983 847.7724767288404 341.3966472561437 845.4392007110227 343.6385249945256 C 843.1059246932051 345.8804027329075 840.2822918477109 349.0272073189132 837.2989592839621 349.6948738722589 C 834.3156267202132 350.36254042560455 830.00092267981 349.21694549012136 827.5392053285295 347.64452431459955 C 825.0774879772491 346.07210313907774 823.4651686821267 343.0251007399314 822.5286551762799 340.26034681912813 C 821.5921416704332 337.49559289832484 820.7918988992014 333.5866441982163 821.9201242934489 331.05600078977966 C 823.0483496876964 328.52535738134304 826.4935369554998 326.38254210571716 829.2980075417648 325.07648636850837 C 832.1024781280298 323.7704306312996 837.2895483025059 323.88883114240355 838.7469478110385 323.2196663665269 C 840.2043473195711 322.55050159065024 838.1843708288046 321.11214987806096 838.0424045929605 321.0614977132486" fill="#b2f2bb" stroke="#000" stroke-width="1" stroke-linecap="round" stroke-linejoin="round"/>
    <path d="M 893.5905484508539 322.1257277766777 C 896.5072805481052 321.9755136077167 901.8909924912273 322.46412187146575 904.2321952428161 324.12082407345304 C 906.573397994405 325.7775262754403 907.2495551708001 329.01246860063986 907.637764960387 332.0659409886015 C 908.0259747499739 335.1194133765631 907.9489105199402 339.96308147211164 906.5614539803374 342.44165840122275 C 905.1739974407346 344.92023533033387 901.8070604388361 345.80852073448983 899.3130257227705 346.9374025632681 C 896.8189910067049 348.0662843920464 894.5025779725889 349.9098438297395 891.5972456839442 349.21494937389235 C 888.6919133952994 348.5200549180452 883.7154725710848 345.61832829419063 881.8810319909015 342.7680358281852 C 880.0465914107183 339.91774336217975 879.7575050555339 335.25613837121546 880.5906022028449 332.11319457785964 C 881.423699350156 328.97025078450383 883.7382346994763 325.69433965884787 886.879614874768 323.91037306805026 C 890.0209950500597 322.12640647725266 896.913865483825 321.2132063064112 899.4388832545955 321.40939503307396 C 901.9639010253659 321.6055837597367 902.2916294635471 324.65641017968585 902.0297214993903 325.08750542802676 M 892.61104741661 322.18935720218997 C 895.3031100185217 322.1705562151656 900.4050680259116 322.6286802581532 903.0399902005978 324.43884851224783 C 905.674912375284 326.24901676634244 907.8273449900516 330.51483850047805 908.4205804647269 333.0503667267576 C 909.0138159394021 335.58589495303715 907.9092037119741 336.93708278796385 906.5994030486493 339.65201786992503 C 905.2896023853244 342.3669529518862 902.8614746873919 347.9178738900371 900.5617764847776 349.3399772185248 C 898.2620782821633 350.7620805470125 895.7260352635709 349.37706249341926 892.8012138329636 348.18463784085145 C 889.8763924023564 346.99221318828364 884.8201273390937 344.91105180158087 883.0128479011339 342.18542930311804 C 881.2055684631741 339.4598068046552 881.7177132374395 334.9829677191702 881.9575372052053 331.83090285007444 C 882.1973611729711 328.6788379809787 882.2220088394196 324.7978461087024 884.4517917077287 323.27304008854355 C 886.6815745760379 321.7482340683847 893.79781956907 323.12382346155215 895.3362344150602 322.6820667291212 C 896.8746492610503 322.2403099966902 893.9483303495281 320.61269538384886 893.6822807836694 320.6224996939576" fill="#d0bfff" stroke="#000" stroke-width="1" stroke-linecap="round" stroke-linejoin="round"/>
    <text x="835" y="375" text-anchor="middle" class="hand small">modules per database</text>
  </g>

  <!-- stick figure YOU on path -->
  <g transform="translate(490, 168)">
    <path d="M -4.854379108933898 -9.156547445883708 C -2.849637803330869 -10.246825777486027 -0.0988496718384484 -11.896881506036612 2.5259356317016377 -11.586853505122898 C 5.150720935241724 -11.276825504209183 9.17263978221983 -9.476234758310367 10.894332712306618 -7.296379440401419 C 12.616025642393405 -5.116524122492471 13.249663561582759 -1.1153451813714717 12.856093212222364 1.4922784023307867 C 12.462522862861968 4.099901986033045 10.351523352659935 6.539353203793937 8.53291061614425 8.349362061812132 C 6.714297879628565 10.159370919830327 4.403206484379253 12.014513766210559 1.9444167931282557 12.352331550439954 C -0.5143728981227416 12.69014933466935 -3.9615389098456504 11.703746149683223 -6.219827531361734 10.376268767188499 C -8.478116152877817 9.048791384693775 -10.787863000390667 7.005494729279308 -11.605314935968245 4.387467255471608 C -12.422766871545823 1.7694397816639085 -12.45176052928398 -2.526014856232375 -11.124539144827203 -5.3318960756577 C -9.797317760370426 -8.137777295083024 -5.53591600764428 -11.589519359123392 -3.6419866292275778 -12.447820061080341 C -1.7480572508108754 -13.30612076303729 0.033086703668930434 -10.941971447899611 0.23903712567301205 -10.481700287399393 M -4.218739559894451 -10.001941408469474 C -1.4903923875910339 -10.442787970250091 2.986303921677848 -9.89321497021944 5.516899883760859 -9.292820943342145 C 8.04749584584387 -8.69242691646485 9.834291391690206 -8.600932760357113 10.964836212603613 -6.399577247205708 C 12.09538103351702 -4.198221734054304 12.830124069465207 1.139898791048163 12.300168809241297 3.9153121355662783 C 11.770213549017388 6.690725480084394 9.645595583929843 9.096899395429464 7.785104651260157 10.252902819902982 C 5.9246137185904715 11.4089062443765 3.8044898109276155 11.403266091387836 1.137223213223181 10.851332682407387 C -1.5300433844812535 10.299399273426937 -5.657347546073304 8.360807335388687 -8.218494934966447 6.9413023660202855 C -10.77964232385959 5.521797396651884 -13.63348317497582 4.234801102201814 -14.229661120135681 2.334302866196978 C -14.825839065295542 0.4338046301921419 -13.784142328896163 -2.1967439746538737 -11.79556260592561 -4.461687050008729 C -9.806982882955058 -6.7266301253635845 -3.4073343879857507 -10.196884891506182 -2.298182782312362 -11.255355585932154 C -1.1890311766389734 -12.313826280358127 -4.998372693822804 -11.123406980925655 -5.140652971885278 -10.812511216564562" fill="#ffffff" stroke="#000" stroke-width="1" stroke-linecap="round" stroke-linejoin="round"/>
    <path d="M -2.2977177778049978 13.568103019158768 C -1.4386050030425401 14.16435265614885 -0.39451960062182445 13.400564803909159 2.7592041439469814 14.152232135114774 M -2.8410948690591455 13.961487481583172 C -1.1532245441335975 13.888382437483566 -0.05521570675237524 13.900049181133468 3.157222185312201 14.116283123730241" fill="none" stroke="#000" stroke-width="1" stroke-linecap="round" stroke-linejoin="round"/>
    <path d="M -0.8605507365807968 11.157354995856473 C 2.399434013432924 22.028229622150686 -2.0063231660387446 32.649351138507015 0.5017932578384975 39.725405928244314 M -0.716329671243544 12.099667056700538 C -0.5585983898805097 21.94141547200106 0.9328139807345706 30.762596203404026 -1.171489737737348 42.117167182114414" fill="none" stroke="#000" stroke-width="1" stroke-linecap="round" stroke-linejoin="round"/>
    <path d="M 0.05031747782184786 21.06924030910673 C -6.5790766627831845 25.914663810594327 -10.031889465169517 35.920030359641615 -18.11844983900491 36.428958614101006 M -0.4172422542910425 23.095346943593213 C -4.604514433568147 26.39645533477553 -10.99428622187702 31.19640377808692 -17.03487547491806 36.95745591679502" fill="none" stroke="#000" stroke-width="1" stroke-linecap="round" stroke-linejoin="round"/>
    <path d="M 2.0684267708577346 19.632112291891158 C 3.4855836523184376 23.722275871479734 8.468743398502362 25.697169092410483 18.463634969823932 29.398016008933396 M 0.4021946642589258 22.01544561083761 C 5.170188905035109 24.577131826057826 10.524877572950295 25.57703964783709 19.549470132962394 29.378337100091837" fill="none" stroke="#000" stroke-width="1" stroke-linecap="round" stroke-linejoin="round"/>
    <path d="M -0.07226818661897597 41.55987173315494 C -6.433312346077741 47.718178404029594 -9.203055801730427 53.359641489658856 -16.298219104334134 63.18929845323486 M 0.07773177108706174 42.489927305600645 C -4.2962847824240775 48.016136930057264 -10.295548331671421 55.71605807684985 -14.898722236849306 61.7720145532128" fill="none" stroke="#000" stroke-width="1" stroke-linecap="round" stroke-linejoin="round"/>
    <path d="M -0.3454950307022758 40.517671594743916 C 3.3093192121317463 46.79983901597854 8.445369088527597 46.06229250156959 16.320200629243555 59.882507104201295 M -0.700307299980496 41.22199221226861 C 5.350421440915006 47.206891538724975 10.512266740423446 52.29848833825468 17.343021294070464 56.839334055060164" fill="none" stroke="#000" stroke-width="1" stroke-linecap="round" stroke-linejoin="round"/>
    <path d="M 15.886472774151812 24.3845403705081 C 23.099412047068938 24.390458373144444 30.6999033594961 25.994791514336917 39.91460729563132 24.23112069661887 M 18.04997357868848 27.019159535564466 C 27.844817573632554 26.272560272039044 35.347766689290914 26.877404074391507 41.179370809856664 26.02393814934773 M 40.10391698160169 25.894595284186032 C 42.61803807135194 30.84229842562694 40.84299548308205 34.61923389733235 40.51500696510262 43.59034331891155 M 41.392504892301304 26.12730346367468 C 42.62126781361534 29.708368722319552 42.096460701042986 35.47676494068523 41.32882043672069 43.61691071492764 M 41.21342882797279 43.049084897184606 C 33.85773583057224 45.61266958195597 26.608443756419163 45.43681101097459 17.133444156651386 42.62448422990295 M 42.344805593760505 43.561224174087656 C 33.535304466149356 44.81652527166115 23.692661799800554 45.20734951630349 17.27862292858132 45.057316111496824 M 17.241337966621376 45.830252627264585 C 18.086468908800775 39.37808772586174 18.850784746818 36.205152855421176 16.928220205817407 24.217606234655502 M 18.091770484681682 44.488834307406925 C 18.386216240411205 39.50636216847546 18.111154188980482 34.72818106038707 18.691790947872953 25.141467639660874" fill="#a5d8ff" stroke="#000" stroke-width="1" stroke-linecap="round" stroke-linejoin="round"/>
    <path d="M -32 58 C -25.919734478079036 56.11167402476686 -20.673101302447936 55.09303182502398 -15.567647976463288 57.60331955956678 M -31.47281724848566 55.58636864755772 C -24.75587293369157 54.09019642052153 -16.82016789068104 53.28311854673507 -11.32187398553788 59.71738869665132" fill="none" stroke="#1e1e1e" stroke-width="2" stroke-linecap="round"/>
    <text x="0" y="82" text-anchor="middle" class="hand tiny">you</text>
  </g>

  <!-- milestone stick: coffee -->
  <g transform="translate(120, 340)">
    <path d="M -2.3802777369636368 -6.312350631530996 C -0.6561056945179631 -6.761289913642853 1.7132207030522661 -6.29358765129301 3.428315791995673 -6.069321757799827 C 5.14341088093908 -5.8450558643066435 7.214128337837404 -6.149558877676817 7.910292796696804 -4.9667552705718965 C 8.606457255556204 -3.783951663466976 7.860559355678423 -0.8266785512684378 7.605302545152074 1.0274998848296957 C 7.350045734625724 2.881678320927829 7.705258604899563 5.216000316770744 6.378751933538707 6.158315346016905 C 5.052245262177851 7.100630375263066 1.478100206869048 6.914607026080114 -0.3537374830130603 6.681390060306659 C -2.1855751728951684 6.448173094533203 -3.4436005737216084 5.758732043042876 -4.612274205753943 4.759013551376169 C -5.780947837786277 3.7592950597094617 -7.087519418239558 2.2412455692057733 -7.365779275207068 0.6830791103064149 C -7.644039132174577 -0.8750873485929433 -7.066991122060567 -3.38217847838144 -6.281833347559003 -4.589985202019979 C -5.496675573057439 -5.797791925658518 -3.164515848854647 -5.927499662890739 -2.654832628197682 -6.563761231524821 C -2.145149407540717 -7.200022800158903 -3.2798584880898534 -8.217110580175028 -3.2237340236172125 -8.407554613824475 M 3.6711342279859354 -6.180537187688864 C 5.129793371186399 -5.662043510496476 5.92046685382356 -4.035285151351828 6.407855892412266 -3.1088653972115043 C 6.895244931000973 -2.1824456430711807 7.032122067842534 -1.8199399231881501 6.595468459518176 -0.6220186628469214 C 6.158814851193818 0.5759025974943074 4.981635800504607 2.9549293167522217 3.78793424246612 4.078662164835869 C 2.5942326844276327 5.202395012919516 0.978479925352464 5.591104199875688 -0.5667408887127482 6.120378425654962 C -2.1119617027779602 6.649652651434235 -4.478522847283512 8.222442907858571 -5.483390641925152 7.254307519511512 C -6.488258436566793 6.286172131164452 -6.125532916696365 2.0545767563519695 -6.595947656562592 0.3115660955726025 C -7.0663623964288185 -1.4314445652067647 -9.008954664587016 -1.8684013165629287 -8.30587908112251 -3.2037564451646916 C -7.602803497658005 -4.539111573766455 -4.169343137406859 -7.285054066145857 -2.3774941557755627 -7.700564676037974 C -0.5856451741442663 -8.11607528593009 1.8391773477474689 -5.732945425862525 2.4452148086652685 -5.696820104517389 C 3.051252269583068 -5.660694783172254 1.2530099326616784 -7.11016074070491 1.2587306097312363 -7.483812747967161" fill="#ffffff" stroke="#000" stroke-width="1" stroke-linecap="round" stroke-linejoin="round"/>
    <path d="M 1.0213745897691808 6.649658715028105 C -1.8364400380229784 13.417748669732985 -1.1289661179461865 23.2303849093411 1.9972895740905139 26.280426458085618 M 0.07772969517800997 8.294385835733216 C 0.4052950633839907 14.411812453139202 0.07816131943340475 19.914615396021965 0.617600266872 26.936534278189367" fill="none" stroke="#000" stroke-width="1" stroke-linecap="round" stroke-linejoin="round"/>
    <path d="M -1.4863751558176683 14.012642634125767 C -2.34761311087904 15.53742093698917 -6.569691374155306 18.21496292585459 -9.094316890166647 20.789875409823253 M -0.646671877795718 14.632180613543728 C -2.3098129636661366 16.396971133412485 -4.413935819555195 17.839519588372248 -10.22449754903942 21.659342647074684" fill="none" stroke="#000" stroke-width="1" stroke-linecap="round" stroke-linejoin="round"/>
    <path d="M 0.41809939995961054 12.635068653840827 C 2.1875308836625744 13.150263146467996 8.44069793766722 13.533282155548827 13.463994647294042 11.108177118655538 M 0.09081585696120019 13.789621104273506 C 4.151498008989323 12.662870447738467 8.87185505367616 12.971614213307191 12.446202662711753 11.714776378115262" fill="none" stroke="#000" stroke-width="1" stroke-linecap="round" stroke-linejoin="round"/>
    <path d="M -0.012324034850822563 27.52744563257345 C -4.432623446801618 31.11196788809525 -5.250322899658443 33.781979720578484 -6.7240192702909996 41.89774099014434 M 1.0052258595205152 26.168182790416992 C -2.756568283937541 31.015484200943607 -4.255241410177428 35.02156311614821 -8.040111757422014 41.024699086096426" fill="none" stroke="#000" stroke-width="1" stroke-linecap="round" stroke-linejoin="round"/>
    <path d="M -1.8329808206095628 24.79900397371721 C 3.4397796957005466 32.04342745428719 6.71857200326236 34.16329929926073 9.15764665741592 41.567628406454496 M 0.1423052578214498 25.760490630801367 C 2.313444316235016 30.86016888483082 5.339504555063875 35.10745681826995 8.768506419277818 40.493986228368236" fill="none" stroke="#000" stroke-width="1" stroke-linecap="round" stroke-linejoin="round"/>
    <path d="M 14.012144190118326 8.351576316369622 C 17.18248097806115 8.312657846048156 20.46120394968083 7.0758424519066665 24.373326335568166 7.772896313877743 M 13.527826982651701 8.28518193192417 C 16.4536562153036 8.092093207881206 18.20891141052688 7.553003454298968 24.367591757205666 7.614555419387094 M 24.200795353037773 8.164716692807309 C 24.797820454584702 12.815498546460793 24.455375731131948 14.317016770280862 23.53206399710273 19.21359271391686 M 24.294575499845376 7.936167584787788 C 24.06940659166164 10.496137317891133 24.44842614384724 12.889487991432246 24.340596846155623 19.64246965762509 M 23.673783489747596 21.066986042793108 C 20.177066119668485 18.945327445907555 17.457348622833976 20.558471167939242 13.442647416088503 20.562648085424076 M 23.867465618393474 20.53202712849724 C 20.53092874672367 20.411290491868957 18.153585701523586 19.95185979290315 14.026668256493515 19.717147498569336 M 13.384430310737052 19.795434079213265 C 15.186327598602242 15.926681179279703 14.065463451847446 13.35647154675586 13.636384752911441 6.886405499338349 M 14.227441877405923 20.463352173944703 C 13.61361137087167 17.373577295592213 14.207545484821459 13.91811961622259 14.069383634763478 8.451520904626122" fill="#ffec99" stroke="#000" stroke-width="1" stroke-linecap="round" stroke-linejoin="round"/>
  </g>

  <!-- milestone stick: celebrate -->
  <g transform="translate(880, 340)">
    <path d="M -3.944693918442224 -7.07359318361438 C -2.67375656244105 -7.882741598222191 -0.7218564667145959 -8.29328654090165 1.0537275420492103 -7.85957968885117 C 2.829311550813016 -7.425872836800688 5.659792603049757 -5.528872101028659 6.708810134140614 -4.471352071311491 C 7.757827665231471 -3.4138320415943237 7.529850253026695 -3.0675272535840996 7.34783272859435 -1.5144595105481644 C 7.165815204162004 0.03860823248777101 6.687912181338448 3.1679894017514494 5.616704987546541 4.847054386904122 C 4.545497793754634 6.526119372056795 2.448218655588195 8.277096109320766 0.9205895658429085 8.559930400367874 C -0.6070395239023781 8.842764691414981 -2.358487848100637 7.589057719950004 -3.549069550925179 6.544060133186773 C -4.739651253749721 5.499062546423541 -5.752830126173072 3.839698251152708 -6.222900651104343 2.2899448797884845 C -6.692971176035614 0.740191508424261 -7.301885126682771 -1.0393406058895356 -6.369492700512803 -2.7544600949985676 C -5.437100274342834 -4.469579584107599 -2.0033679561380966 -7.043436623907604 -0.6285460940845281 -8.000772054865708 C 0.7462757679690405 -8.958107485823813 1.9426530047715347 -8.617869687543978 1.879438471808608 -8.498472680747193 M 4.255510948746592 -8.221784039333139 C 5.827519450206318 -7.986766225225392 4.984653670984845 -7.241938591015508 5.31101824028309 -5.596994854412319 C 5.637382809581335 -3.9520511178091304 6.003468344727432 -0.13789764579094443 6.213698364536062 1.6478783802859918 C 6.423928384344691 3.433654406362928 7.873855304243708 4.367467028426894 6.5723983591348665 5.117661302049298 C 5.270941414026025 5.867855575671701 0.3175934411194379 6.010430341343958 -1.5950433061169875 6.149044022020412 C -3.507680053353413 6.287657702696866 -3.8433275341152995 6.755272336394504 -4.903422124283685 5.949343386108023 C -5.963516714452069 5.1434144358215415 -7.738749864990038 2.7133386737597878 -7.955610847127298 1.3134703203015237 C -8.172471829264559 -0.08639803315674022 -7.015993556850642 -1.2060532864987725 -6.2045880171072465 -2.449866734641561 C -5.393182477363851 -3.6936801827843495 -4.633612265907164 -5.459712079332164 -3.087177608666924 -6.149410368555207 C -1.5407429514266842 -6.839108657778251 1.8666518783153156 -6.242717627445736 3.074019926334194 -6.588056469979826 C 4.2813879743530725 -6.933395312513915 4.40289450404867 -8.032702149074035 4.157030679446347 -8.221443423759743" fill="#ffffff" stroke="#000" stroke-width="1" stroke-linecap="round" stroke-linejoin="round"/>
    <path d="M 0.07947928527692354 9.386418152962266 C -1.0487889718956784 15.598582177312538 -1.607965033356713 21.594745779234366 0.45044649127320574 27.22514938109295 M 0.18977617244966893 7.031073028357495 C 0.12691925470231336 13.206975772472372 0.9100801824353868 19.644179940552934 0.7964906043909099 26.268548262900566" fill="none" stroke="#000" stroke-width="1" stroke-linecap="round" stroke-linejoin="round"/>
    <path d="M -1.8625054585094736 14.294748687421306 C -4.633414607044024 10.370119939438537 -8.196166926314792 3.7079346750645508 -12.63134835877688 2.571721795875928 M 0.03073568757556866 14.739800333168413 C -3.0481407811910004 10.915047250157233 -7.82536082315241 4.640640928306884 -13.318429450201894 0.8690073982991212" fill="none" stroke="#000" stroke-width="1" stroke-linecap="round" stroke-linejoin="round"/>
    <path d="M -0.920577356843609 16.52084745140588 C 3.5693381592034017 6.868697534092289 9.358487610687304 2.319031757138136 11.542735941410852 1.3542525204363387 M 0.6515355488373348 14.404181666190087 C 5.905198797670778 10.343769764299621 8.905287243112076 4.281316829601617 14.17150993300966 1.2628246946146053" fill="none" stroke="#000" stroke-width="1" stroke-linecap="round" stroke-linejoin="round"/>
    <path d="M 0.38150302380624473 25.9896433514361 C -2.005705882265034 30.68803294690467 -6.609442980942956 36.81110456867373 -5.2454514830767085 40.97915392953008 M 0.631337487396014 26.34860687157714 C -2.7829743942398473 30.42882077875852 -5.365214820513611 34.33627985589358 -6.485882656061384 40.57525281677221" fill="none" stroke="#000" stroke-width="1" stroke-linecap="round" stroke-linejoin="round"/>
    <path d="M 0.08179265730669898 25.412159079811715 C 3.035199088236865 30.9971808056276 6.4258947328210265 39.00962780843688 5.672638113492738 40.663192496262 M 0.7628643252047717 25.409411170807353 C 1.140273962859787 30.894200160946422 4.357269326933717 32.877823067054656 5.99664566935123 40.731373465397176" fill="none" stroke="#000" stroke-width="1" stroke-linecap="round" stroke-linejoin="round"/>
  </g>

  <text x="500" y="420" text-anchor="middle" class="hand foot">velm:make:* · $inherit · ship on Laravel</text>
</svg>
